<?xml version="1.0" standalone="no"?>
<!DOCTYPE svg PUBLIC "-//W3C//DTD SVG 20010904//EN"
 "http://www.w3.org/TR/2001/REC-SVG-20010904/DTD/svg10.dtd">
<svg version="1.0" xmlns="http://www.w3.org/2000/svg"
 width="150.000000pt" height="100pt" viewBox="256 256 512 512">

<g transform="translate(0.000000,1024.000000) scale(0.100000,-0.100000)"
fill="#4F1091" stroke="none">
<path d="M5020 6943 c-381 -66 -697 -435 -736 -863 -11 -110 33 -206 109 -241
70 -31 143 -20 202 32 45 40 63 94 69 214 16 305 225 534 489 536 82 1 138
-22 187 -79 49 -54 50 -66 8 -44 -77 38 -196 6 -244 -66 -71 -104 -15 -266
113 -328 118 -58 271 -27 367 76 202 216 125 565 -156 703 -103 51 -175 67
-288 66 -52 -1 -106 -4 -120 -6z"/>
<path d="M3795 6644 c-93 -18 -210 -41 -260 -49 -49 -9 -94 -20 -98 -24 -5 -5
8 -18 27 -29 66 -39 66 -42 64 -782 l-3 -654 -190 -37 c-104 -20 -206 -39
-225 -43 l-35 -6 2 483 c1 265 5 501 8 523 3 23 21 67 40 99 19 32 35 61 35
65 0 15 -602 -102 -608 -118 -2 -7 3 -12 11 -12 24 0 66 -39 90 -83 l22 -42 0
-990 c0 -810 -3 -1000 -14 -1045 -17 -68 -33 -100 -72 -145 -26 -30 -28 -35
-13 -35 11 0 125 20 254 44 129 24 256 47 283 51 52 8 59 21 26 51 -12 10 -30
37 -40 59 -17 36 -19 72 -19 403 0 199 3 362 7 362 9 0 387 68 421 75 l22 5 0
-323 c0 -403 -8 -456 -83 -534 -27 -29 -28 -33 -11 -33 35 0 568 100 576 108
4 4 -7 22 -25 39 -65 61 -61 -6 -64 1258 -1 633 2 1175 6 1205 9 60 27 107 61
158 l22 32 -24 -1 c-12 0 -99 -16 -193 -35z"/>
<path d="M6911 6009 c-119 -31 -213 -83 -303 -168 -119 -112 -217 -270 -253
-410 -37 -145 -35 -444 5 -568 79 -249 222 -401 450 -479 84 -29 270 -27 370
4 196 62 345 181 453 363 101 170 138 302 139 504 1 257 -84 467 -249 614
-154 138 -403 195 -612 140z m259 -340 c80 -36 130 -99 155 -196 18 -68 21
-399 5 -483 -23 -120 -96 -221 -189 -263 -57 -25 -169 -28 -221 -5 -50 22 -99
74 -129 138 -26 55 -26 56 -26 320 l0 265 28 60 c56 120 150 185 267 185 44 0
80 -7 110 -21z"/>
<path d="M6185 5835 c-60 -12 -198 -39 -305 -59 -107 -21 -202 -40 -210 -42
-10 -4 -1 -12 26 -25 47 -23 74 -69 74 -128 0 -43 -39 -152 -124 -342 -31 -70
-56 -132 -56 -138 0 -35 -25 5 -85 135 -125 273 -137 329 -90 412 13 23 19 42
14 42 -27 0 -565 -104 -573 -110 -4 -5 8 -16 29 -25 20 -10 47 -32 60 -49 13
-17 114 -213 225 -435 l202 -405 -5 -405 c-4 -439 -9 -481 -64 -598 -51 -109
-165 -204 -244 -202 -19 0 -28 3 -20 6 17 7 61 101 61 133 0 36 -33 101 -66
132 -92 86 -244 74 -332 -27 -52 -58 -65 -100 -66 -200 -1 -79 2 -97 27 -148
34 -68 107 -147 166 -177 54 -27 182 -60 235 -60 67 0 177 28 243 60 132 65
239 178 316 333 102 205 124 355 131 867 l4 365 250 505 c137 278 266 526 286
553 20 26 36 49 36 52 0 8 -28 4 -145 -20z"/>
<path d="M4715 5563 c-11 -3 -138 -27 -282 -55 -145 -28 -263 -53 -263 -57 0
-4 16 -15 35 -24 21 -10 43 -32 57 -59 23 -43 23 -44 26 -548 3 -532 -1 -611
-40 -703 -12 -26 -32 -57 -46 -68 -14 -10 -22 -22 -19 -25 3 -4 106 12 229 35
123 22 253 46 291 52 53 9 67 15 67 29 0 10 -7 21 -15 24 -9 3 -27 30 -41 60
l-25 54 3 589 3 588 26 53 c27 55 27 61 -6 55z"/>
</g>
</svg>
